<svg id="Layer_1" data-name="Layer 1" xmlns="http://www.w3.org/2000/svg" viewBox="0 0 90 90"><defs><style>.cls-1{fill:#985a0c;}</style></defs><title>paw</title><path class="cls-1" d="M40.8,38.7c2.3,0,4.2-2.5,4.2-5.6s-1.9-5.6-4.2-5.6-4.2,2.5-4.2,5.6S38.5,38.7,40.8,38.7Z" transform="translate(-5 -5)"/><path class="cls-1" d="M59.2,38.7c2.3,0,4.2-2.5,4.2-5.6s-1.9-5.6-4.2-5.6S55,30,55,33.1,56.9,38.7,59.2,38.7Z" transform="translate(-5 -5)"/><path class="cls-1" d="M60.9,58.6c-2.7-1.2-4.5-5.1-5.1-6.7-1.4-3.6-3.1-5.1-5.7-5.2-2.6.1-4.3,1.6-5.7,5.2-.6,1.6-2.4,5.6-5.1,6.7a7.84,7.84,0,0,0-4.7,8.3,6.49,6.49,0,0,0,5.8,5.6,8.08,8.08,0,0,0,4.3-.6,9.14,9.14,0,0,0,1.4-.7,11.46,11.46,0,0,1,3.4-1.3,1.27,1.27,0,0,1,.6-.1h.2a.75.75,0,0,1,.5.1,11.46,11.46,0,0,1,3.4,1.3,9.14,9.14,0,0,0,1.4.7,8.08,8.08,0,0,0,4.3.6,6.49,6.49,0,0,0,5.8-5.6A8.2,8.2,0,0,0,60.9,58.6Z" transform="translate(-5 -5)"/><path class="cls-1" d="M28.3,42.6a1.7,1.7,0,0,0-.7.1c-2.2.5-3.5,3.4-2.8,6.4s3.2,5,5.4,4.5,3.5-3.4,2.8-6.4C32.4,44.5,30.4,42.6,28.3,42.6Z" transform="translate(-5 -5)"/><path class="cls-1" d="M50,5A45,45,0,1,0,95,50,44.94,44.94,0,0,0,50,5Zm9.2,19.4c4,0,7.2,3.9,7.2,8.6s-3.2,8.6-7.2,8.6S52,37.8,52,33,55.2,24.4,59.2,24.4Zm-18.4,0c4,0,7.2,3.9,7.2,8.6s-3.2,8.6-7.2,8.6-7.2-3.9-7.2-8.6S36.8,24.4,40.8,24.4ZM29.5,56.7c-3.4,0-6.6-2.9-7.6-6.9-1.1-4.6,1.1-9.1,5-10.1a6.75,6.75,0,0,1,1.4-.2c3.4,0,6.6,2.9,7.6,6.9,1.1,4.6-1.1,9.1-5,10.1A5.9,5.9,0,0,1,29.5,56.7ZM68.6,67.3a9.45,9.45,0,0,1-8.3,8.2,8.6,8.6,0,0,1-1.6.1,10.7,10.7,0,0,1-4.3-.9c-.6-.3-1.1-.5-1.7-.8a7,7,0,0,0-2.6-1,7,7,0,0,0-2.6,1,8.86,8.86,0,0,1-1.7.8,10.7,10.7,0,0,1-4.3.9,8.6,8.6,0,0,1-1.6-.1,9.45,9.45,0,0,1-8.3-8.2,10.88,10.88,0,0,1,6.5-11.4c1.1-.5,2.5-2.6,3.5-5.1.7-1.7,2.6-6.7,8-7h1c5.4.4,7.3,5.4,8,7,1,2.5,2.4,4.6,3.5,5.1A10.88,10.88,0,0,1,68.6,67.3ZM78,50c-1.1,3.9-4.2,6.7-7.6,6.7h0a8.75,8.75,0,0,1-1.6-.2,6.42,6.42,0,0,1-4.3-3.9,9.64,9.64,0,0,1-.4-6.3c1.1-3.9,4.2-6.7,7.6-6.7a8.75,8.75,0,0,1,1.6.2C77.1,40.8,79.2,45.4,78,50Z" transform="translate(-5 -5)"/><path class="cls-1" d="M72.5,42.7a2.2,2.2,0,0,0-.8-.1c-2,0-4,1.9-4.7,4.5a7,7,0,0,0,.2,4.3,3.5,3.5,0,0,0,2.4,2.2c2.2.6,4.7-1.4,5.5-4.4S74.7,43.3,72.5,42.7Z" transform="translate(-5 -5)"/></svg>